<svg xmlns="http://www.w3.org/2000/svg" width="276.552" height="85.834" viewBox="0 0 276.552 85.834" aria-labelledby="footer_logo footer_logo_description" role="img">
<title id="footer_logo">BCSoft logo</title>
<!-- TODO: description of logo -->
<desc id="footer_logo_description">BCSoft logo about connections between layers of complexity.</desc>
  <g id="Raggruppa_443" data-name="Raggruppa 443" transform="translate(-207 -48)">
    <g id="Raggruppa_396" data-name="Raggruppa 396" transform="translate(313.659 68.667)">
      <g id="Raggruppa_394" data-name="Raggruppa 394" transform="translate(0 0)">
        <g id="soft" transform="translate(67.422)">
          <g id="Raggruppa_392" data-name="Raggruppa 392">
            <path id="Tracciato_296" data-name="Tracciato 296" d="M781.5,117.373q2.617.054,5.4.267a42.769,42.769,0,0,1,5.556.8l-.32,3.419q-2.3-.106-5.075-.187t-5.343-.08q-1.977,0-3.392.133a5.9,5.9,0,0,0-2.324.642,2.888,2.888,0,0,0-1.309,1.656,9.989,9.989,0,0,0-.4,3.178q0,3.045,1.1,4.246a6.86,6.86,0,0,0,3.553,1.79l7.479,1.87q4.273,1.015,5.85,3.551a12.821,12.821,0,0,1,1.576,6.811,15.425,15.425,0,0,1-.721,5.181,6.1,6.1,0,0,1-2.218,3.018,9.44,9.44,0,0,1-3.846,1.442,33.505,33.505,0,0,1-5.557.4q-1.817,0-4.728-.16a54.409,54.409,0,0,1-6.705-.855l.32-3.472q3.152.108,5.075.187t3.313.08h2.885a18.322,18.322,0,0,0,4.461-.427,3.4,3.4,0,0,0,2.3-1.709,8.464,8.464,0,0,0,.668-3.793,9.049,9.049,0,0,0-.481-3.312,3.592,3.592,0,0,0-1.522-1.789,9.47,9.47,0,0,0-2.645-.988l-7.64-1.923a8.981,8.981,0,0,1-5.636-3.525,12.216,12.216,0,0,1-1.629-6.73,15.18,15.18,0,0,1,.721-5.154,5.853,5.853,0,0,1,2.19-2.938,8.814,8.814,0,0,1,3.713-1.308A38.38,38.38,0,0,1,781.5,117.373Z" transform="translate(-769.533 -116.572)" fill="#fff"/>
            <path id="Tracciato_297" data-name="Tracciato 297" d="M889.675,158.1a7.808,7.808,0,0,0-3.873-4.353,19.854,19.854,0,0,0-14.318,0,7.911,7.911,0,0,0-3.9,4.353,27.127,27.127,0,0,0,0,15.971,7.909,7.909,0,0,0,3.9,4.354,19.863,19.863,0,0,0,14.318,0,7.806,7.806,0,0,0,3.873-4.354,27.723,27.723,0,0,0,0-15.971Zm-4.221,13.914a4.963,4.963,0,0,1-2.351,3.018,9.612,9.612,0,0,1-4.487.882,9.44,9.44,0,0,1-4.461-.882,4.983,4.983,0,0,1-2.324-3.018,25.656,25.656,0,0,1,0-11.858,4.987,4.987,0,0,1,2.324-3.018,9.445,9.445,0,0,1,4.461-.881,9.616,9.616,0,0,1,4.487.881,4.966,4.966,0,0,1,2.351,3.018,25.661,25.661,0,0,1,0,11.858Z" transform="translate(-836.411 -140.767)" fill="#fff"/>
            <path id="Tracciato_298" data-name="Tracciato 298" d="M977.184,154.482v3.579H959.607v-3.311l4.969-.267Z" transform="translate(-900.787 -142.197)" fill="#fff"/>
            <path id="Tracciato_299" data-name="Tracciato 299" d="M982.386,114.783q.854,0,2.19.027t2.724.107q1.389.08,2.4.24l-.374,3.365h-5.342a5.105,5.105,0,0,0-3.606,1.015,4.56,4.56,0,0,0-1.042,3.365v30.179H974.8V122.421a10.173,10.173,0,0,1,.748-4.14,5.385,5.385,0,0,1,2.4-2.59A9.239,9.239,0,0,1,982.386,114.783Z" transform="translate(-911.278 -114.783)" fill="#fff"/>
            <path id="Tracciato_300" data-name="Tracciato 300" d="M1042.559,154.482v3.579h-17.523v-3.311l5.129-.267Z" transform="translate(-945.968 -142.197)" fill="#fff"/>
            <path id="Tracciato_301" data-name="Tracciato 301" d="M1044.769,129.627v26.547a3.682,3.682,0,0,0,.8,2.671,3.775,3.775,0,0,0,2.725.8h3.953l.534,3.472a19.678,19.678,0,0,1-1.976.374q-1.122.161-2.191.241t-1.709.08a6.5,6.5,0,0,1-4.969-1.816,7.35,7.35,0,0,1-1.709-5.234V129.627Z" transform="translate(-956.459 -125.033)" fill="#fff"/>
          </g>
        </g>
        <g id="bc" transform="translate(0 0.802)">
          <g id="Raggruppa_393" data-name="Raggruppa 393">
            <path id="Tracciato_302" data-name="Tracciato 302" d="M563.629,118.064a25.209,25.209,0,0,1,7.212.828,6.45,6.45,0,0,1,3.873,2.911,11.853,11.853,0,0,1,1.2,5.875,10.416,10.416,0,0,1-1.469,6.036,6.227,6.227,0,0,1-4.781,2.4v.214q4.113.374,5.743,2.884a12.68,12.68,0,0,1,1.629,6.943,12.088,12.088,0,0,1-1.175,5.876,6.319,6.319,0,0,1-3.766,2.91,22.977,22.977,0,0,1-6.812.828q-3.152,0-5.422-.027t-4.194-.133q-1.923-.108-4.007-.267l.748-3.739q1.174.054,4.461.107t7.667.054a16.621,16.621,0,0,0,4.621-.508,3.8,3.8,0,0,0,2.4-1.9,8.891,8.891,0,0,0,.721-4.006,10.481,10.481,0,0,0-.748-4.433,4.275,4.275,0,0,0-2.511-2.19,15.3,15.3,0,0,0-4.808-.694h-11.86v-3.579h11.807a15.272,15.272,0,0,0,4.247-.561,3.7,3.7,0,0,0,2.271-1.869,8.563,8.563,0,0,0,.694-3.819,8,8,0,0,0-.748-3.846,3.876,3.876,0,0,0-2.484-1.816,18.434,18.434,0,0,0-4.728-.481h-4.7q-2.084,0-3.66.027t-2.644.133l-.748-3.739q1.869-.213,3.553-.293t3.686-.107Q560.9,118.065,563.629,118.064Z" transform="translate(-551.662 -117.85)" fill="#fff"/>
            <rect id="Rettangolo_52" data-name="Rettangolo 52" width="4.595" height="36.855" transform="translate(0 0.641)" fill="#fff"/>
            <path id="Tracciato_303" data-name="Tracciato 303" d="M668.687,117.374q2.35,0,4.033.107a30.014,30.014,0,0,1,3.1.348q1.415.24,2.912.614l-.481,3.579q-1.6-.16-2.965-.267t-2.911-.16q-1.55-.053-3.686-.054a10.1,10.1,0,0,0-5.663,1.389,7.73,7.73,0,0,0-2.965,4.647,35.343,35.343,0,0,0-.882,8.866,35.342,35.342,0,0,0,.882,8.867,7.723,7.723,0,0,0,2.965,4.647,10.087,10.087,0,0,0,5.663,1.389q3.418,0,5.743-.133t4.568-.454l.481,3.525a31.819,31.819,0,0,1-4.728.935,52.17,52.17,0,0,1-6.064.293,16.828,16.828,0,0,1-8.468-1.843,10.5,10.5,0,0,1-4.595-6.009,35.905,35.905,0,0,1-1.416-11.217,35.908,35.908,0,0,1,1.416-11.217,10.5,10.5,0,0,1,4.595-6.008A16.821,16.821,0,0,1,668.687,117.374Z" transform="translate(-622.475 -117.374)" fill="#fff"/>
          </g>
        </g>
      </g>
      <g id="csi" transform="translate(0 45.004)">
        <g id="Raggruppa_395" data-name="Raggruppa 395">
          <path id="Tracciato_304" data-name="Tracciato 304" d="M535.452,269.691q.23,0,.529.02t.612.066a3.253,3.253,0,0,1,.579.138l-.076.238a4.135,4.135,0,0,0-.809-.125q-.478-.033-.783-.033a3.383,3.383,0,0,0-1.472.271,1.615,1.615,0,0,0-.8.925,6.846,6.846,0,0,0,0,3.654,1.615,1.615,0,0,0,.8.931,3.375,3.375,0,0,0,1.472.27c.119,0,.28,0,.484-.013s.42-.026.65-.053.438-.058.624-.092l.051.238q-.42.092-.9.158a6.979,6.979,0,0,1-.943.066,3.536,3.536,0,0,1-1.637-.324,1.877,1.877,0,0,1-.892-1.057,7.1,7.1,0,0,1,0-3.9,1.878,1.878,0,0,1,.892-1.05A3.5,3.5,0,0,1,535.452,269.691Z" transform="translate(-532.662 -266.758)" fill="#fff"/>
          <path id="Tracciato_305" data-name="Tracciato 305" d="M557.776,271.065a1.834,1.834,0,0,0-.841-1.05,4,4,0,0,0-3.153,0,1.828,1.828,0,0,0-.847,1.05,7.608,7.608,0,0,0,0,3.9,1.828,1.828,0,0,0,.847,1.057,4,4,0,0,0,3.153,0,1.835,1.835,0,0,0,.841-1.057,6.139,6.139,0,0,0,.255-1.962A6.024,6.024,0,0,0,557.776,271.065Zm-.293,3.759a1.606,1.606,0,0,1-.745.944,3.581,3.581,0,0,1-2.764,0,1.6,1.6,0,0,1-.745-.944,5.771,5.771,0,0,1-.229-1.817,5.656,5.656,0,0,1,.229-1.8,1.605,1.605,0,0,1,.745-.938,3.584,3.584,0,0,1,2.764,0,1.607,1.607,0,0,1,.745.938,5.664,5.664,0,0,1,.229,1.8A5.779,5.779,0,0,1,557.483,274.825Z" transform="translate(-546.693 -266.758)" fill="#fff"/>
          <path id="Tracciato_306" data-name="Tracciato 306" d="M577.826,270.2l.038,1.163.038.212v4.968H577.6V270.2Z" transform="translate(-564.156 -267.112)" fill="#fff"/>
          <path id="Tracciato_307" data-name="Tracciato 307" d="M581.472,269.691q1.644,0,1.644,1.731v4.77h-.306v-4.73a1.551,1.551,0,0,0-.344-1.11,1.409,1.409,0,0,0-1.057-.357,2.982,2.982,0,0,0-1.357.331,11.565,11.565,0,0,0-1.561.991v-.3a6.652,6.652,0,0,1,1.528-.991A3.546,3.546,0,0,1,581.472,269.691Z" transform="translate(-564.783 -266.758)" fill="#fff"/>
          <path id="Tracciato_308" data-name="Tracciato 308" d="M602.722,269.687q.37,0,.777.02t.815.053q.408.033.777.086l-.038.238q-.561-.039-1.166-.066t-1.166-.04a7.337,7.337,0,0,0-1.108.046.869.869,0,0,0-.637.357,1.8,1.8,0,0,0-.2.984,1.427,1.427,0,0,0,.268.984,1.22,1.22,0,0,0,.752.35l2.064.264a1.67,1.67,0,0,1,1.032.476,1.614,1.614,0,0,1,.357,1.137,1.958,1.958,0,0,1-.281,1.176,1.29,1.29,0,0,1-.815.476,6.9,6.9,0,0,1-1.313.106q-.445,0-.98-.027t-1.236-.119l.038-.238q.408.04.752.06t.688.026q.344.007.752.007a6.507,6.507,0,0,0,1.223-.112,1,1,0,0,0,.663-.409,1.747,1.747,0,0,0,.2-.944,1.263,1.263,0,0,0-.313-.978,1.361,1.361,0,0,0-.77-.33L601.792,273a1.832,1.832,0,0,1-.72-.231,1.114,1.114,0,0,1-.452-.522,2.195,2.195,0,0,1-.153-.885,2.044,2.044,0,0,1,.255-1.163,1.116,1.116,0,0,1,.758-.443A6.81,6.81,0,0,1,602.722,269.687Z" transform="translate(-580.186 -266.754)" fill="#fff"/>
          <path id="Tracciato_309" data-name="Tracciato 309" d="M623.262,270.2v4.731a1.531,1.531,0,0,0,.35,1.11,1.413,1.413,0,0,0,1.051.357,2.741,2.741,0,0,0,1.306-.337,11.608,11.608,0,0,0,1.484-.985v.3a6.649,6.649,0,0,1-1.458.985,3.231,3.231,0,0,1-1.4.337q-1.644,0-1.643-1.731V270.2Z" transform="translate(-595.948 -267.112)" fill="#fff"/>
          <path id="Tracciato_310" data-name="Tracciato 310" d="M638.169,270.2v6.343h-.229l-.038-1.163-.038-.211V270.2Z" transform="translate(-606.397 -267.112)" fill="#fff"/>
          <path id="Tracciato_311" data-name="Tracciato 311" d="M647.285,260.81v7.981a1.073,1.073,0,0,0,.267.786,1.008,1.008,0,0,0,.752.271h.739l.038.211a1.207,1.207,0,0,1-.229.046c-.1.014-.206.022-.312.027s-.2.007-.274.007a1.28,1.28,0,0,1-.937-.344,1.325,1.325,0,0,1-.35-.991V260.81Z" transform="translate(-612.786 -260.625)" fill="#fff"/>
          <path id="Tracciato_312" data-name="Tracciato 312" d="M659.995,269.691a2.977,2.977,0,0,1,1.8.449,1.609,1.609,0,0,1,.612,1.348,2.154,2.154,0,0,1-.268,1.275,1.175,1.175,0,0,1-1.045.43h-3.541V272.9h3.541a.867.867,0,0,0,.79-.357,1.782,1.782,0,0,0,.2-1.031,1.337,1.337,0,0,0-.535-1.156,2.7,2.7,0,0,0-1.541-.363,2.749,2.749,0,0,0-1.363.291,1.644,1.644,0,0,0-.733.945,5.576,5.576,0,0,0-.223,1.751,5.246,5.246,0,0,0,.255,1.81,1.735,1.735,0,0,0,.8.965,2.935,2.935,0,0,0,1.4.291,10.987,10.987,0,0,0,1.172-.059q.547-.06.9-.112l.051.238a3.571,3.571,0,0,1-.592.119q-.389.052-.815.086t-.758.033a3.182,3.182,0,0,1-1.567-.337,1.984,1.984,0,0,1-.879-1.077,5.583,5.583,0,0,1-.28-1.942,5.891,5.891,0,0,1,.261-1.942,1.838,1.838,0,0,1,.841-1.044A3.165,3.165,0,0,1,659.995,269.691Z" transform="translate(-620.07 -266.758)" fill="#fff"/>
          <path id="Tracciato_313" data-name="Tracciato 313" d="M681.154,270.2l.038,1.163.038.212v4.968h-.306V270.2Z" transform="translate(-636.578 -267.112)" fill="#fff"/>
          <path id="Tracciato_314" data-name="Tracciato 314" d="M684.8,269.691q1.643,0,1.643,1.731v4.77h-.306v-4.73a1.552,1.552,0,0,0-.344-1.11,1.41,1.41,0,0,0-1.058-.357,2.986,2.986,0,0,0-1.357.331,11.584,11.584,0,0,0-1.561.991v-.3a6.658,6.658,0,0,1,1.529-.991A3.545,3.545,0,0,1,684.8,269.691Z" transform="translate(-637.204 -266.758)" fill="#fff"/>
          <path id="Tracciato_315" data-name="Tracciato 315" d="M708,271.1l.382.013-4.586,5.774-.382-.013Z" transform="translate(-652.339 -267.731)" fill="#fff"/>
          <rect id="Rettangolo_53" data-name="Rettangolo 53" width="5.006" height="0.291" transform="translate(51.073 9.144)" fill="#fff"/>
          <rect id="Rettangolo_54" data-name="Rettangolo 54" width="4.93" height="0.291" transform="translate(51.111 3.092)" fill="#fff"/>
          <path id="Tracciato_316" data-name="Tracciato 316" d="M729.817,278.317l-.013.264-3.121.053a1.052,1.052,0,0,0-1.146,1.176v.819a1.276,1.276,0,0,0,.325.945,1.329,1.329,0,0,0,.949.337,3.065,3.065,0,0,0,1.064-.178,5.264,5.264,0,0,0,1.089-.516,4.484,4.484,0,0,0,.866-.68v.33a2.7,2.7,0,0,1-.5.443,6.056,6.056,0,0,1-.732.443,4.687,4.687,0,0,1-.866.343,3.3,3.3,0,0,1-.917.132,1.831,1.831,0,0,1-.853-.185,1.272,1.272,0,0,1-.548-.542,1.828,1.828,0,0,1-.191-.872v-.819a1.51,1.51,0,0,1,.383-1.1,1.446,1.446,0,0,1,1.083-.39Z" transform="translate(-667.623 -272.714)" fill="#fff"/>
          <path id="Tracciato_317" data-name="Tracciato 317" d="M728.945,269.691a2.128,2.128,0,0,1,.9.178,1.243,1.243,0,0,1,.586.568,2.219,2.219,0,0,1,.2,1.024v4.73h-.229l-.077-1.4v-3.33a1.8,1.8,0,0,0-.293-1.037,1.253,1.253,0,0,0-1.109-.43q-.688,0-1.439.059t-1.426.152l-.039-.238q.408-.066.834-.126t.937-.105Q728.308,269.691,728.945,269.691Z" transform="translate(-668.191 -266.758)" fill="#fff"/>
          <path id="Tracciato_318" data-name="Tracciato 318" d="M760.014,269.687c.246,0,.5.007.777.02s.543.031.815.053.531.051.777.086l-.038.238q-.561-.039-1.166-.066t-1.166-.04a7.335,7.335,0,0,0-1.108.046.871.871,0,0,0-.637.357,1.8,1.8,0,0,0-.2.984,1.428,1.428,0,0,0,.267.984,1.222,1.222,0,0,0,.752.35l2.064.264a1.67,1.67,0,0,1,1.032.476,1.615,1.615,0,0,1,.357,1.137,1.959,1.959,0,0,1-.28,1.176,1.29,1.29,0,0,1-.815.476,6.894,6.894,0,0,1-1.312.106q-.446,0-.981-.027t-1.235-.119l.038-.238q.408.04.751.06t.688.026q.344.007.751.007a6.513,6.513,0,0,0,1.223-.112,1,1,0,0,0,.662-.409,1.744,1.744,0,0,0,.2-.944,1.266,1.266,0,0,0-.312-.978,1.361,1.361,0,0,0-.771-.33L759.084,273a1.827,1.827,0,0,1-.72-.231,1.113,1.113,0,0,1-.452-.522,2.187,2.187,0,0,1-.153-.885,2.041,2.041,0,0,1,.255-1.163,1.115,1.115,0,0,1,.758-.443A6.8,6.8,0,0,1,760.014,269.687Z" transform="translate(-690.431 -266.754)" fill="#fff"/>
          <path id="Rettangolo_55" data-name="Rettangolo 55" d="M.216,0h0A.217.217,0,0,1,.433.217v.7a.216.216,0,0,1-.216.216h0A.217.217,0,0,1,0,.92v-.7A.216.216,0,0,1,.216,0Z" transform="translate(74.08 0.462)" fill="#fff"/>
          <rect id="Rettangolo_56" data-name="Rettangolo 56" width="0.306" height="6.343" transform="translate(74.144 3.092)" fill="#fff"/>
          <path id="Tracciato_319" data-name="Tracciato 319" d="M790.636,269.687q.37,0,.777.02t.815.053q.408.033.777.086l-.038.238q-.561-.039-1.166-.066t-1.166-.04a7.336,7.336,0,0,0-1.108.046.871.871,0,0,0-.637.357,1.8,1.8,0,0,0-.2.984,1.427,1.427,0,0,0,.268.984,1.22,1.22,0,0,0,.752.35l2.064.264a1.669,1.669,0,0,1,1.031.476,1.614,1.614,0,0,1,.357,1.137,1.959,1.959,0,0,1-.28,1.176,1.29,1.29,0,0,1-.815.476,6.893,6.893,0,0,1-1.312.106q-.446,0-.981-.027t-1.235-.119l.038-.238q.408.04.752.06t.688.026q.344.007.751.007a6.51,6.51,0,0,0,1.223-.112,1,1,0,0,0,.662-.409,1.743,1.743,0,0,0,.2-.944,1.266,1.266,0,0,0-.312-.978,1.361,1.361,0,0,0-.77-.33L789.706,273a1.826,1.826,0,0,1-.72-.231,1.113,1.113,0,0,1-.452-.522,2.187,2.187,0,0,1-.153-.885,2.042,2.042,0,0,1,.255-1.163,1.115,1.115,0,0,1,.758-.443A6.8,6.8,0,0,1,790.636,269.687Z" transform="translate(-711.893 -266.754)" fill="#fff"/>
          <path id="Tracciato_320" data-name="Tracciato 320" d="M812.124,270.2v.291h-3.682v-.225l1.185-.066Z" transform="translate(-725.954 -267.112)" fill="#fff"/>
          <path id="Tracciato_321" data-name="Tracciato 321" d="M812.453,263.755v7.07a1.069,1.069,0,0,0,.268.793,1.022,1.022,0,0,0,.751.265h1.121l.038.211c-.11.018-.238.033-.382.046s-.278.022-.4.027-.223.006-.3.006a1.444,1.444,0,0,1-1.051-.344,1.324,1.324,0,0,1-.35-.991v-7.083Z" transform="translate(-728.551 -262.659)" fill="#fff"/>
          <path id="Tracciato_322" data-name="Tracciato 322" d="M827.336,269.691a2.976,2.976,0,0,1,1.8.449,1.608,1.608,0,0,1,.612,1.348,2.156,2.156,0,0,1-.267,1.275,1.176,1.176,0,0,1-1.045.43h-3.541V272.9h3.541a.867.867,0,0,0,.79-.357,1.784,1.784,0,0,0,.2-1.031,1.339,1.339,0,0,0-.535-1.156,2.7,2.7,0,0,0-1.542-.363,2.751,2.751,0,0,0-1.363.291,1.644,1.644,0,0,0-.732.945,5.573,5.573,0,0,0-.223,1.751,5.243,5.243,0,0,0,.255,1.81,1.736,1.736,0,0,0,.8.965,2.934,2.934,0,0,0,1.4.291,10.984,10.984,0,0,0,1.172-.059q.548-.06.9-.112l.051.238a3.577,3.577,0,0,1-.592.119q-.388.052-.815.086t-.758.033a3.183,3.183,0,0,1-1.567-.337,1.985,1.985,0,0,1-.879-1.077,5.592,5.592,0,0,1-.28-1.942,5.884,5.884,0,0,1,.261-1.942,1.836,1.836,0,0,1,.841-1.044A3.167,3.167,0,0,1,827.336,269.691Z" transform="translate(-737.358 -266.758)" fill="#fff"/>
          <path id="Tracciato_323" data-name="Tracciato 323" d="M848.5,270.2l.038,1.163.038.212v4.968h-.306V270.2Z" transform="translate(-753.866 -267.112)" fill="#fff"/>
          <path id="Tracciato_324" data-name="Tracciato 324" d="M851.886,269.691a1.526,1.526,0,0,1,1.172.436,1.833,1.833,0,0,1,.408,1.3v4.77h-.306v-4.73a1.569,1.569,0,0,0-.338-1.11,1.313,1.313,0,0,0-1-.357,2.451,2.451,0,0,0-.828.145,3.8,3.8,0,0,0-.847.443q-.44.3-.988.733v-.3a5.908,5.908,0,0,1,1.389-.991A3.027,3.027,0,0,1,851.886,269.691Z" transform="translate(-754.492 -266.758)" fill="#fff"/>
          <path id="Tracciato_325" data-name="Tracciato 325" d="M866.155,269.691a1.527,1.527,0,0,1,1.172.436,1.836,1.836,0,0,1,.408,1.3v4.77h-.306v-4.73a1.573,1.573,0,0,0-.338-1.11,1.315,1.315,0,0,0-1-.357,2.449,2.449,0,0,0-.828.145,3.8,3.8,0,0,0-.848.443q-.439.3-.987.733v-.3a5.893,5.893,0,0,1,1.389-.991A3.025,3.025,0,0,1,866.155,269.691Z" transform="translate(-764.493 -266.758)" fill="#fff"/>
          <path id="Rettangolo_57" data-name="Rettangolo 57" d="M.217,0h0A.217.217,0,0,1,.433.217v.7a.216.216,0,0,1-.216.216h0A.216.216,0,0,1,0,.921v-.7A.217.217,0,0,1,.217,0Z" transform="translate(105.585 0.462)" fill="#fff"/>
          <rect id="Rettangolo_58" data-name="Rettangolo 58" width="0.306" height="6.343" transform="translate(105.648 3.092)" fill="#fff"/>
          <path id="Rettangolo_59" data-name="Rettangolo 59" d="M.216,0h0A.217.217,0,0,1,.433.217v.7a.216.216,0,0,1-.216.216h0A.217.217,0,0,1,0,.92v-.7A.216.216,0,0,1,.216,0Z" transform="translate(111.317 0.462)" fill="#fff"/>
          <rect id="Rettangolo_60" data-name="Rettangolo 60" width="0.306" height="6.343" transform="translate(111.381 3.092)" fill="#fff"/>
          <path id="Tracciato_326" data-name="Tracciato 326" d="M914.512,270.2l.038,1.163.038.212v4.968h-.305V270.2Z" transform="translate(-800.137 -267.112)" fill="#fff"/>
          <path id="Tracciato_327" data-name="Tracciato 327" d="M918.157,269.691q1.643,0,1.643,1.731v4.77h-.306v-4.73a1.552,1.552,0,0,0-.344-1.11,1.41,1.41,0,0,0-1.057-.357,2.984,2.984,0,0,0-1.357.331,11.58,11.58,0,0,0-1.561.991v-.3a6.655,6.655,0,0,1,1.529-.991A3.542,3.542,0,0,1,918.157,269.691Z" transform="translate(-800.762 -266.758)" fill="#fff"/>
          <path id="Tracciato_328" data-name="Tracciato 328" d="M939.684,270.2v.291H936v-.225l1.185-.066Z" transform="translate(-815.36 -267.112)" fill="#fff"/>
          <path id="Tracciato_329" data-name="Tracciato 329" d="M941.3,260.212q.178,0,.452.007l.554.013q.28.007.5.033v.238h-1.4a1.461,1.461,0,0,0-1.077.324,1.64,1.64,0,0,0-.312,1.143v7.677h-.306v-7.677a2.675,2.675,0,0,1,.153-.971,1.121,1.121,0,0,1,.5-.588A1.9,1.9,0,0,1,941.3,260.212Z" transform="translate(-817.957 -260.212)" fill="#fff"/>
          <path id="Tracciato_330" data-name="Tracciato 330" d="M957.028,271.065a1.837,1.837,0,0,0-.841-1.05,4,4,0,0,0-3.153,0,1.828,1.828,0,0,0-.847,1.05,7.6,7.6,0,0,0,0,3.9,1.829,1.829,0,0,0,.847,1.057,4,4,0,0,0,3.153,0,1.838,1.838,0,0,0,.841-1.057,6.143,6.143,0,0,0,.255-1.962A6.027,6.027,0,0,0,957.028,271.065Zm-.293,3.759a1.605,1.605,0,0,1-.745.944,3.581,3.581,0,0,1-2.765,0,1.606,1.606,0,0,1-.745-.944,5.767,5.767,0,0,1-.229-1.817,5.652,5.652,0,0,1,.229-1.8,1.607,1.607,0,0,1,.745-.938,3.584,3.584,0,0,1,2.765,0,1.606,1.606,0,0,1,.745.938,5.663,5.663,0,0,1,.229,1.8A5.778,5.778,0,0,1,956.735,274.825Z" transform="translate(-826.525 -266.758)" fill="#fff"/>
          <path id="Tracciato_331" data-name="Tracciato 331" d="M977.078,270.2l.038,1.163.038.212v4.968h-.306V270.2Z" transform="translate(-843.989 -267.112)" fill="#fff"/>
          <path id="Tracciato_332" data-name="Tracciato 332" d="M980.851,269.691l-.064.3h-.216a2.786,2.786,0,0,0-1.312.344,12.8,12.8,0,0,0-1.516.978v-.3a7.992,7.992,0,0,1,1.472-.971,3.124,3.124,0,0,1,1.395-.35Z" transform="translate(-844.615 -266.758)" fill="#fff"/>
          <path id="Tracciato_333" data-name="Tracciato 333" d="M993.391,270.2l.038,1.163.038.212v4.968h-.306V270.2Z" transform="translate(-855.422 -267.112)" fill="#fff"/>
          <path id="Tracciato_334" data-name="Tracciato 334" d="M996.781,269.691a1.526,1.526,0,0,1,1.172.436,1.833,1.833,0,0,1,.408,1.3v4.77h-.306v-4.73a1.569,1.569,0,0,0-.338-1.11,1.313,1.313,0,0,0-1-.357,2.449,2.449,0,0,0-.828.145,3.8,3.8,0,0,0-.847.443q-.44.3-.988.733v-.3a5.9,5.9,0,0,1,1.389-.991A3.027,3.027,0,0,1,996.781,269.691Z" transform="translate(-856.049 -266.758)" fill="#fff"/>
          <path id="Tracciato_335" data-name="Tracciato 335" d="M1011.05,269.691a1.527,1.527,0,0,1,1.172.436,1.835,1.835,0,0,1,.408,1.3v4.77h-.306v-4.73a1.571,1.571,0,0,0-.338-1.11,1.314,1.314,0,0,0-1-.357,2.451,2.451,0,0,0-.828.145,3.805,3.805,0,0,0-.847.443q-.439.3-.987.733v-.3a5.89,5.89,0,0,1,1.389-.991A3.025,3.025,0,0,1,1011.05,269.691Z" transform="translate(-866.049 -266.758)" fill="#fff"/>
          <path id="Tracciato_336" data-name="Tracciato 336" d="M1034.005,278.317l-.013.264-3.121.053a1.052,1.052,0,0,0-1.146,1.176v.819a1.276,1.276,0,0,0,.325.945,1.329,1.329,0,0,0,.949.337,3.064,3.064,0,0,0,1.064-.178,5.264,5.264,0,0,0,1.089-.516,4.477,4.477,0,0,0,.866-.68v.33a2.7,2.7,0,0,1-.5.443,6.056,6.056,0,0,1-.732.443,4.691,4.691,0,0,1-.867.343,3.294,3.294,0,0,1-.917.132,1.83,1.83,0,0,1-.853-.185,1.271,1.271,0,0,1-.548-.542,1.821,1.821,0,0,1-.192-.872v-.819a1.51,1.51,0,0,1,.383-1.1,1.446,1.446,0,0,1,1.083-.39Z" transform="translate(-880.826 -272.714)" fill="#fff"/>
          <path id="Tracciato_337" data-name="Tracciato 337" d="M1033.133,269.691a2.128,2.128,0,0,1,.9.178,1.242,1.242,0,0,1,.586.568,2.216,2.216,0,0,1,.2,1.024v4.73h-.229l-.077-1.4v-3.33a1.8,1.8,0,0,0-.293-1.037,1.253,1.253,0,0,0-1.108-.43q-.688,0-1.44.059t-1.426.152l-.038-.238q.407-.066.834-.126t.936-.105Q1032.5,269.691,1033.133,269.691Z" transform="translate(-881.393 -266.758)" fill="#fff"/>
          <path id="Tracciato_338" data-name="Tracciato 338" d="M1054.64,270.2v.291h-3.682v-.225l1.185-.066Z" transform="translate(-895.931 -267.112)" fill="#fff"/>
          <path id="Tracciato_339" data-name="Tracciato 339" d="M1054.969,263.755v7.07a1.069,1.069,0,0,0,.267.793,1.022,1.022,0,0,0,.752.265h1.121l.038.211c-.11.018-.238.033-.382.046s-.279.022-.4.027-.223.006-.3.006a1.445,1.445,0,0,1-1.051-.344,1.325,1.325,0,0,1-.35-.991v-7.083Z" transform="translate(-898.528 -262.659)" fill="#fff"/>
          <path id="Rettangolo_61" data-name="Rettangolo 61" d="M.216,0h0A.217.217,0,0,1,.433.217v.7a.216.216,0,0,1-.216.216h0A.217.217,0,0,1,0,.92v-.7A.216.216,0,0,1,.216,0Z" transform="translate(160.199 0.462)" fill="#fff"/>
          <rect id="Rettangolo_62" data-name="Rettangolo 62" width="0.306" height="6.343" transform="translate(160.262 3.092)" fill="#fff"/>
          <path id="Tracciato_340" data-name="Tracciato 340" d="M1080.631,270.2l-2.51,6.237a.2.2,0,0,1-.064.079.175.175,0,0,1-.1.026h-.344a.184.184,0,0,1-.1-.026.178.178,0,0,1-.07-.079l-2.51-6.237h.331l1.949,4.849c.084.194.166.392.242.595s.157.406.242.608h.166q.127-.3.248-.608t.248-.608l1.937-4.836Z" transform="translate(-912.737 -267.112)" fill="#fff"/>
          <path id="Rettangolo_63" data-name="Rettangolo 63" d="M.216,0h0A.217.217,0,0,1,.433.217v.7a.216.216,0,0,1-.216.216h0A.217.217,0,0,1,0,.92v-.7A.216.216,0,0,1,.216,0Z" transform="translate(169.46 0.462)" fill="#fff"/>
          <rect id="Rettangolo_64" data-name="Rettangolo 64" width="0.306" height="6.343" transform="translate(169.524 3.092)" fill="#fff"/>
        </g>
      </g>
    </g>
    <g id="logo" transform="translate(207 48)">
      <g id="Raggruppa_397" data-name="Raggruppa 397" transform="translate(0 9.197)">
        <path id="Tracciato_341" data-name="Tracciato 341" d="M292.452,136.681s2.391-1.641,3.745-2.454c-40.737,13.4-72.653,23.725-79.847,18.994-11.614-7.638,34.808-41.156,96.613-68.958-1.418,2.526-1.783,2.967-1.592,2.543-20.517,7.469-60.886,28-88.494,48.788-28.151,21.2-20.235,32.035,34.766,12.909Z" transform="translate(-207 -82.238)" fill="#fff" fill-rule="evenodd"/>
        <path id="Tracciato_342" data-name="Tracciato 342" d="M531.349,87.555l.876-5.007-4.182-2.9,15.769-1.929Z" transform="translate(-428.693 -77.72)" fill="#fff" fill-rule="evenodd"/>
      </g>
      <path id="Tracciato_343" data-name="Tracciato 343" d="M411.347,81.761l3.793,1.019V86.7l-3.793-.916Z" transform="translate(-348.11 -71.313)" fill="none" stroke="#acd0fb" stroke-width="0.633" fill-rule="evenodd"/>
      <path id="Tracciato_344" data-name="Tracciato 344" d="M435.995,279.183l10.285-2.114v11.485l-10.285,3.038Z" transform="translate(-365.13 -206.181)" fill="none" stroke="#acd0fb" stroke-width="0.633" fill-rule="evenodd"/>
      <path id="Tracciato_345" data-name="Tracciato 345" d="M286.012,252.244l14.27-.909-.3,12.06-14.3,1.932Z" transform="translate(-261.335 -188.411)" fill="none" stroke="#acd0fb" stroke-width="0.633" fill-rule="evenodd"/>
      <path id="Tracciato_346" data-name="Tracciato 346" d="M494.948,153.5l8.639.942V165.25l-8.639-.127Z" transform="translate(-405.84 -120.85)" fill="none" stroke="#acd0fb" stroke-width="0.633" fill-rule="evenodd"/>
      <path id="Tracciato_347" data-name="Tracciato 347" d="M367.578,176.211l16.919.666v16.041l-16.919,1.2Z" transform="translate(-317.886 -136.535)" fill="none" stroke="#acd0fb" stroke-width="0.633" fill-rule="evenodd"/>
      <path id="Tracciato_348" data-name="Tracciato 348" d="M301.671,239.153l14.27-.908-.3,12.06-14.3,1.932Z" transform="translate(-272.148 -179.372)" fill="none" stroke="#185fa2" fill-rule="evenodd"/>
      <path id="Tracciato_349" data-name="Tracciato 349" d="M321.527,62.678l23.347,5.483V88.512l-23.347-2.388Z" transform="translate(-286.086 -58.136)" fill="none" stroke="#acd0fb" stroke-width="0.633" fill-rule="evenodd"/>
      <path id="Tracciato_350" data-name="Tracciato 350" d="M420.278,76.71l3.793,1.019v3.92l-3.793-.916Z" transform="translate(-354.277 -67.825)" fill="#acd0fb" fill-rule="evenodd"/>
      <path id="Tracciato_351" data-name="Tracciato 351" d="M470.948,215.04l7.893-1.161v9.771l-7.893,2.03Z" transform="translate(-389.267 -162.546)" fill="none" stroke="#acd0fb" stroke-width="0.633" fill-rule="evenodd"/>
      <path id="Tracciato_352" data-name="Tracciato 352" d="M403.314,260.021l5.165-.864v5.094l-5.165,1.038Z" transform="translate(-342.563 -193.812)" fill="#acd0fb" fill-rule="evenodd"/>
      <path id="Tracciato_353" data-name="Tracciato 353" d="M476.206,228.26l4.008-.671v3.953l-4.008.806Z" transform="translate(-392.898 -172.013)" fill="#acd0fb" fill-rule="evenodd"/>
      <path id="Tracciato_354" data-name="Tracciato 354" d="M410.693,251.5l5.165-.864v5.094l-5.165,1.038Z" transform="translate(-347.658 -187.928)" fill="none" stroke="#185fa2" stroke-width="0.633" fill-rule="evenodd"/>
      <path id="Tracciato_355" data-name="Tracciato 355" d="M505.732,138.819l8.639.942v10.811l-8.639-.127Z" transform="translate(-413.287 -110.714)" fill="#fff" fill-rule="evenodd"/>
      <path id="Tracciato_356" data-name="Tracciato 356" d="M446.779,264.5l10.286-2.114v11.485l-10.286,3.038Z" transform="translate(-372.577 -196.046)" fill="#fff" fill-rule="evenodd"/>
      <path id="Tracciato_357" data-name="Tracciato 357" d="M378.363,161.533l16.919.666V178.24l-16.919,1.2Z" transform="translate(-325.333 -126.399)" fill="#fff" fill-rule="evenodd"/>
      <path id="Tracciato_358" data-name="Tracciato 358" d="M434.931,119.1l13.955,2.588v14.924L434.931,136Z" transform="translate(-364.396 -97.099)" fill="none" stroke="#acd0fb" stroke-width="0.633" fill-rule="evenodd"/>
      <path id="Tracciato_359" data-name="Tracciato 359" d="M443.862,106.947l13.955,2.588v14.924l-13.955-.612Z" transform="translate(-370.563 -88.705)" fill="#fff" fill-rule="evenodd"/>
      <path id="Tracciato_360" data-name="Tracciato 360" d="M312.819,224.748l14.27-.908-.3,12.06-14.3,1.932Z" transform="translate(-279.847 -169.425)" fill="#fff" fill-rule="evenodd"/>
      <path id="Tracciato_361" data-name="Tracciato 361" d="M332.312,48l23.346,5.483V73.834l-23.346-2.388Z" transform="translate(-293.533 -48)" fill="#fff" fill-rule="evenodd"/>
      <path id="Tracciato_362" data-name="Tracciato 362" d="M426.406,70.568l3.793,1.018v3.92l-3.793-.916Z" transform="translate(-358.509 -63.584)" fill="#fff" fill-rule="evenodd"/>
      <path id="Tracciato_363" data-name="Tracciato 363" d="M481.459,200.442l7.893-1.161v9.771l-7.893,2.03Z" transform="translate(-396.525 -152.466)" fill="#fff" fill-rule="evenodd"/>
      <path id="Tracciato_364" data-name="Tracciato 364" d="M418.24,241.21l5.165-.864v5.094l-5.165,1.038Z" transform="translate(-352.87 -180.823)" fill="#fff" fill-rule="evenodd"/>
      <path id="Tracciato_365" data-name="Tracciato 365" d="M372.605,197.521l9.271.365v8.789l-9.271.656Z" transform="translate(-321.357 -151.25)" fill="#acd0fb" fill-rule="evenodd"/>
    </g>
  </g>
</svg>
