<svg xmlns="http://www.w3.org/2000/svg" width="18.834" height="18" viewBox="0 0 18.834 18">
  <path id="Tracciato_8" data-name="Tracciato 8" d="M4.278,5.847V18H.232V5.847ZM4.535,2.1c0,.022,0,.047,0,.073a1.934,1.934,0,0,1-.619,1.421h0a2.3,2.3,0,0,1-1.556.6l-.111,0H2.229l-.1,0a2.208,2.208,0,0,1-1.518-.6h0A2,2,0,0,1,0,2.148c0-.018,0-.036,0-.055v0c0-.016,0-.034,0-.052A1.97,1.97,0,0,1,.628.6h0A2.3,2.3,0,0,1,2.18,0l.1,0h0l.107,0A2.237,2.237,0,0,1,3.911.6h0a2.04,2.04,0,0,1,.626,1.473V2.1Zm14.294,8.939V18H14.8V11.5c0-.059.005-.128.005-.2a3.526,3.526,0,0,0-.511-1.835l.009.016a1.744,1.744,0,0,0-1.422-.734c-.045,0-.09,0-.135.005h-.061a1.976,1.976,0,0,0-1.231.427l0,0a2.62,2.62,0,0,0-.774,1.031l-.006.017a2.9,2.9,0,0,0-.136.89q0,.054,0,.108V18H6.509q.025-4.891.025-7.932T6.522,6.437L6.51,5.849h4.033V7.614h-.025a5.315,5.315,0,0,1,.508-.693l-.006.007A5.224,5.224,0,0,1,11.7,6.3l.012-.009a3.159,3.159,0,0,1,1.044-.528l.022-.005a4.76,4.76,0,0,1,1.348-.19h.056c.053,0,.115,0,.178,0a4.343,4.343,0,0,1,3.191,1.392l0,0a5.834,5.834,0,0,1,1.276,4.076Z" transform="translate(0.003 0.002)" fill="#fff"/>
</svg>
