<svg xmlns="http://www.w3.org/2000/svg" viewBox="0 0 1527.34 472.43" aria-labelledby='header_logo header_logo_description'><defs><style>.cls-1,.cls-2{fill:#185fa2;}.cls-2,.cls-3,.cls-4,.cls-5,.cls-6{fill-rule:evenodd;}.cls-3,.cls-4,.cls-6{fill:none;stroke-miterlimit:10;}.cls-3{stroke:#acd0fb;}.cls-3,.cls-6{stroke-width:1.08px;}.cls-4,.cls-6{stroke:#185fa2;}.cls-4{stroke-width:0;}.cls-5{fill:#acd0fb;}</style></defs>
<title id="header_logo">BCSoft logo</title>
<!-- TODO: description of logo -->
<desc id="header_logo_description">BCSoft logo about connections between layers of complexity.</desc>
<g id="Livello_2" data-name="Livello 2"><g id="Livello_2-2" data-name="Livello 2"><g id="Logo_secondario" data-name="Logo secondario"><g id="logotipo"><g id="bc_soft" data-name="bc soft"><g id="soft"><path class="cls-1" d="M1027.5,118.56q14.46.3,29.81,1.48a236.68,236.68,0,0,1,30.68,4.42l-1.77,18.88q-12.69-.59-28-1t-29.51-.44q-10.91,0-18.73.73a32.66,32.66,0,0,0-12.84,3.55,16,16,0,0,0-7.22,9.14q-2.22,6.35-2.22,17.55,0,16.82,6.05,23.45t19.62,9.89l41.31,10.32q23.6,5.61,32.31,19.62t8.7,37.61q0,17.7-4,28.61T1079.43,319q-8.27,5.76-21.24,8a184.59,184.59,0,0,1-30.69,2.22q-10,0-26.11-.89a299.81,299.81,0,0,1-37-4.72l1.77-19.17q17.42.6,28,1t18.3.44h15.93q15.63,0,24.64-2.36t12.69-9.44q3.67-7.08,3.68-20.94,0-11.79-2.65-18.29a19.86,19.86,0,0,0-8.41-9.88,52.44,52.44,0,0,0-14.61-5.46l-42.19-10.62q-22.12-5.59-31.13-19.47t-9-37.17q0-17.7,4-28.46t12.09-16.23q8.12-5.46,20.51-7.23A212,212,0,0,1,1027.5,118.56Z"/><path class="cls-1" d="M1255.58,209.86q-6.49-16.67-21.39-24t-39.69-7.37q-24.49,0-39.39,7.37t-21.54,24q-6.63,16.68-6.63,44.11t6.63,44.1q6.65,16.67,21.54,24t39.39,7.37q24.78,0,39.69-7.37t21.39-24q6.48-16.67,6.49-44.1T1255.58,209.86Zm-23.31,76.85q-3.84,11.81-13,16.67t-24.79,4.86q-15.64,0-24.63-4.86T1157,286.71q-3.84-11.81-3.84-32.74t3.84-32.75q3.83-11.79,12.84-16.67t24.63-4.86q15.64,0,24.79,4.86t13,16.67q3.82,11.81,3.83,32.75T1232.27,286.71Z"/><polygon class="cls-1" points="1383.34 181.99 1383.34 201.75 1286.27 201.75 1286.27 183.46 1313.71 181.99 1383.34 181.99"/><path class="cls-1" d="M1354.13,114.14q4.71,0,12.09.15t15,.59q7.67.44,13.28,1.32l-2.07,18.59H1363q-14.16,0-19.92,5.6T1337.31,159V325.65h-25.08V156.32q0-13.56,4.13-22.86a29.78,29.78,0,0,1,13.28-14.31Q1338.78,114.14,1354.13,114.14Z"/><polygon class="cls-1" points="1494.87 181.99 1494.87 201.75 1398.09 201.75 1398.09 183.46 1426.41 181.99 1494.87 181.99"/><path class="cls-1" d="M1449.13,139.51V286.12q0,10.32,4.43,14.75t15,4.42h21.83l3,19.18a108.49,108.49,0,0,1-10.92,2.06q-6.2.89-12.1,1.33c-3.93.3-7.08.44-9.44.44q-18,0-27.44-10t-9.44-28.91V139.51Z"/></g><g id="bc"><path class="cls-1" d="M655.15,119.75q25.07,0,39.83,4.57t21.39,16.08Q723,151.89,723,172.84q0,21.84-8.12,33.34t-26.4,13.27v1.18q22.71,2.07,31.72,15.93t9,38.35q0,21-6.49,32.45t-20.8,16.08Q687.6,328,664.29,328q-17.41,0-29.95-.15t-23.16-.73q-10.62-.6-22.13-1.48L593.18,305q6.5.3,24.64.59t42.34.3q16.23,0,25.52-2.81T699,292.61q4-7.67,4-22.12,0-15.93-4.12-24.49T685,233.91q-9.75-3.54-26.56-3.84h-65.5V210.31H658.1q14.74-.3,23.45-3.1a20.41,20.41,0,0,0,12.54-10.32q3.84-7.53,3.84-21.1,0-13.86-4.13-21.23t-13.72-10q-9.6-2.66-26.11-2.65H628q-11.5,0-20.21.15t-14.61.73l-4.13-20.64q10.34-1.19,19.63-1.63t20.35-.59Q640.1,119.76,655.15,119.75Z"/><rect class="cls-1" x="589.05" y="122.11" width="25.37" height="203.54"/><path class="cls-1" d="M844.28,118.57q13,0,22.27.59a165.39,165.39,0,0,1,17.11,1.91q7.82,1.34,16.09,3.4l-2.66,19.76q-8.85-.89-16.38-1.48t-16.07-.88q-8.57-.28-20.36-.29-19.77,0-31.28,7.67t-16.38,25.66q-4.86,18-4.86,49t4.86,49q4.88,18,16.38,25.66t31.28,7.67q18.87,0,31.71-.74c8.56-.48,17-1.33,25.23-2.5l2.66,19.47a176.47,176.47,0,0,1-26.12,5.16,287.27,287.27,0,0,1-33.48,1.62q-29.22,0-46.77-10.18t-25.38-33.18q-7.82-23-7.82-61.95t7.82-61.95q7.82-23,25.38-33.19T844.28,118.57Z"/></g></g><g id="csi"><path class="cls-1" d="M572.52,378.89c.88,0,1.88,0,3,.11s2.31.19,3.5.36a18.89,18.89,0,0,1,3.31.77l-.44,1.31a24.11,24.11,0,0,0-4.62-.69c-1.82-.12-3.31-.19-4.48-.19a20,20,0,0,0-8.4,1.5,9,9,0,0,0-4.59,5.11,36.56,36.56,0,0,0,0,20.18,9,9,0,0,0,4.59,5.14,19.8,19.8,0,0,0,8.4,1.5c.68,0,1.61,0,2.77-.07s2.4-.15,3.71-.29,2.5-.32,3.57-.52l.29,1.32q-2.4.51-5.17.87a40,40,0,0,1-5.38.37,20.83,20.83,0,0,1-9.36-1.79,10.47,10.47,0,0,1-5.09-5.84,37.79,37.79,0,0,1,0-21.56,10.45,10.45,0,0,1,5.09-5.8A20.5,20.5,0,0,1,572.52,378.89Z"/><path class="cls-1" d="M619.91,386.48a10.19,10.19,0,0,0-4.8-5.8,23.57,23.57,0,0,0-18,0,10.17,10.17,0,0,0-4.84,5.8,40.53,40.53,0,0,0,0,21.56,10.19,10.19,0,0,0,4.84,5.84,23.57,23.57,0,0,0,18,0,10.21,10.21,0,0,0,4.8-5.84,32.85,32.85,0,0,0,1.46-10.83A32.24,32.24,0,0,0,619.91,386.48Zm-1.67,20.76a9,9,0,0,1-4.26,5.22,21.16,21.16,0,0,1-15.8,0,9,9,0,0,1-4.26-5.22,31,31,0,0,1-1.31-10,30.36,30.36,0,0,1,1.31-9.93,9,9,0,0,1,4.26-5.18,21,21,0,0,1,15.8,0,9,9,0,0,1,4.26,5.18,30.36,30.36,0,0,1,1.31,9.93A31,31,0,0,1,618.24,407.24Z"/><polygon class="cls-1" points="634.69 379.76 634.91 386.18 635.13 387.35 635.13 414.79 633.38 414.79 633.38 379.76 634.69 379.76"/><path class="cls-1" d="M651.94,378.89q9.39,0,9.39,9.56v26.34h-1.75V388.67q0-4.17-2-6.13c-1.31-1.32-3.33-2-6-2a17.64,17.64,0,0,0-7.76,1.83,66.94,66.94,0,0,0-8.91,5.47v-1.68a38.53,38.53,0,0,1,8.73-5.47A20.9,20.9,0,0,1,651.94,378.89Z"/><path class="cls-1" d="M685.35,378.89c1.41,0,2.89,0,4.44.11s3.11.17,4.66.29,3,.28,4.44.47l-.22,1.32q-3.2-.22-6.66-.37c-2.3-.09-4.52-.17-6.66-.22a43.06,43.06,0,0,0-6.33.26,5,5,0,0,0-3.64,2c-.78,1.09-1.17,2.91-1.17,5.44s.51,4.39,1.53,5.43a7.1,7.1,0,0,0,4.3,1.94L691.83,397a9.74,9.74,0,0,1,5.9,2.63c1.35,1.41,2,3.51,2,6.28q0,4.46-1.61,6.49A7.41,7.41,0,0,1,693.5,415a40.5,40.5,0,0,1-7.49.59q-2.55,0-5.61-.15t-7.06-.66l.22-1.31c1.55.15,3,.25,4.29.33s2.62.12,3.93.14,2.74,0,4.3,0a39.41,39.41,0,0,0,7-.62,5.71,5.71,0,0,0,3.78-2.26,9.38,9.38,0,0,0,1.17-5.22q0-3.87-1.79-5.4a7.88,7.88,0,0,0-4.4-1.82L680,397.21a10.75,10.75,0,0,1-4.11-1.28,6.22,6.22,0,0,1-2.59-2.88,11.83,11.83,0,0,1-.87-4.89q0-4.46,1.45-6.43a6.45,6.45,0,0,1,4.33-2.44A39.93,39.93,0,0,1,685.35,378.89Z"/><path class="cls-1" d="M712.65,379.76v26.13c0,2.77.66,4.82,2,6.13s3.34,2,6,2a16.07,16.07,0,0,0,7.46-1.86,65.91,65.91,0,0,0,8.48-5.44v1.68a38.38,38.38,0,0,1-8.34,5.44,18.94,18.94,0,0,1-8,1.86q-9.39,0-9.39-9.56V379.76Z"/><polygon class="cls-1" points="738.13 379.76 738.13 414.79 736.82 414.79 736.6 408.37 736.38 407.2 736.38 379.76 738.13 379.76"/><path class="cls-1" d="M753.71,363.71v44.08a5.81,5.81,0,0,0,1.52,4.34,5.88,5.88,0,0,0,4.3,1.5h4.22l.22,1.16a7.64,7.64,0,0,1-1.31.26c-.58.07-1.18.12-1.78.14s-1.13,0-1.57,0a7.43,7.43,0,0,1-5.35-1.9,7.15,7.15,0,0,1-2-5.47V363.71Z"/><path class="cls-1" d="M784.71,378.89q6.85,0,10.27,2.48t3.49,7.44c.1,3.12-.41,5.46-1.53,7s-3.1,2.38-6,2.38H770.74v-1.61H791c2.14,0,3.64-.66,4.52-2a9.58,9.58,0,0,0,1.16-5.69q-.07-4.38-3.06-6.39c-2-1.33-4.92-2-8.8-2a16.15,16.15,0,0,0-7.79,1.61,9.15,9.15,0,0,0-4.19,5.22,29.85,29.85,0,0,0-1.27,9.67,28.13,28.13,0,0,0,1.45,10,9.64,9.64,0,0,0,4.55,5.32,17.19,17.19,0,0,0,8,1.61,64,64,0,0,0,6.69-.33c2.09-.22,3.81-.42,5.17-.62l.29,1.31a19.86,19.86,0,0,1-3.38.66c-1.48.19-3,.35-4.66.47s-3.07.19-4.33.19a18.73,18.73,0,0,1-9-1.86,11.09,11.09,0,0,1-5-5.95,29.89,29.89,0,0,1-1.6-10.73,31.71,31.71,0,0,1,1.49-10.73,10.26,10.26,0,0,1,4.8-5.76A18.6,18.6,0,0,1,784.71,378.89Z"/><polygon class="cls-1" points="811.28 379.76 811.5 386.18 811.72 387.35 811.72 414.79 809.98 414.79 809.98 379.76 811.28 379.76"/><path class="cls-1" d="M828.54,378.89q9.39,0,9.39,9.56v26.34h-1.75V388.67q0-4.17-2-6.13t-6-2a17.6,17.6,0,0,0-7.75,1.83,67.61,67.61,0,0,0-8.92,5.47v-1.68a38.36,38.36,0,0,1,8.74-5.47A20.9,20.9,0,0,1,828.54,378.89Z"/><polygon class="cls-1" points="874.61 381.3 876.8 381.37 850.59 413.26 848.41 413.19 874.61 381.3"/><rect class="cls-1" x="848.41" y="413.19" width="28.61" height="1.61"/><rect class="cls-1" x="848.62" y="379.76" width="28.17" height="1.61"/><path class="cls-1" d="M912,393.63l-.08,1.46-17.83.29a6.91,6.91,0,0,0-4.88,1.72,6.36,6.36,0,0,0-1.67,4.78v4.52a6.9,6.9,0,0,0,1.85,5.22,7.8,7.8,0,0,0,5.43,1.86,17.94,17.94,0,0,0,6.07-1,30.36,30.36,0,0,0,6.23-2.84,25.42,25.42,0,0,0,4.95-3.76v1.82a15.32,15.32,0,0,1-2.88,2.45A33.89,33.89,0,0,1,905,412.6a27.26,27.26,0,0,1-5,1.9,19.37,19.37,0,0,1-5.24.73,10.78,10.78,0,0,1-4.88-1,7.18,7.18,0,0,1-3.13-3,9.81,9.81,0,0,1-1.09-4.82v-4.52a8.17,8.17,0,0,1,2.18-6.1,8.46,8.46,0,0,1,6.19-2.15Z"/><path class="cls-1" d="M903.73,378.89a12.62,12.62,0,0,1,5.17,1,7.08,7.08,0,0,1,3.35,3.14,12,12,0,0,1,1.16,5.66v26.12H912.1l-.44-7.73V388.67a9.65,9.65,0,0,0-1.67-5.73c-1.12-1.58-3.23-2.38-6.33-2.38-2.63,0-5.37.12-8.23.33s-5.58.5-8.15.84l-.22-1.31q2.33-.36,4.77-.69c1.62-.22,3.41-.42,5.35-.59S901.3,378.89,903.73,378.89Z"/><path class="cls-1" d="M954.17,378.89c1.41,0,2.89,0,4.45.11s3.1.17,4.65.29,3,.28,4.44.47l-.21,1.32q-3.21-.22-6.66-.37c-2.31-.09-4.53-.17-6.67-.22a43.06,43.06,0,0,0-6.33.26,5,5,0,0,0-3.64,2c-.77,1.09-1.16,2.91-1.16,5.44s.51,4.39,1.53,5.43a7.07,7.07,0,0,0,4.29,1.94L960.65,397a9.74,9.74,0,0,1,5.9,2.63c1.36,1.41,2,3.51,2,6.28,0,3-.54,5.13-1.6,6.49a7.41,7.41,0,0,1-4.66,2.63,40.7,40.7,0,0,1-7.5.59q-2.55,0-5.61-.15c-2-.1-4.39-.32-7.06-.66l.22-1.31c1.56.15,3,.25,4.3.33s2.62.12,3.93.14,2.74,0,4.29,0a39.41,39.41,0,0,0,7-.62,5.75,5.75,0,0,0,3.79-2.26,9.47,9.47,0,0,0,1.16-5.22c0-2.58-.6-4.38-1.78-5.4a7.91,7.91,0,0,0-4.41-1.82l-11.79-1.46a10.8,10.8,0,0,1-4.11-1.28,6.32,6.32,0,0,1-2.59-2.88,11.83,11.83,0,0,1-.87-4.89c0-3,.48-5.11,1.46-6.43a6.43,6.43,0,0,1,4.33-2.44A39.75,39.75,0,0,1,954.17,378.89Z"/><path class="cls-1" d="M980.74,365.24h.72a.88.88,0,0,1,.88.88v4.53a.87.87,0,0,1-.87.87h-.72a.88.88,0,0,1-.88-.88v-4.53A.87.87,0,0,1,980.74,365.24Z"/><rect class="cls-1" x="980.24" y="379.76" width="1.75" height="35.03"/><path class="cls-1" d="M1006.51,378.89c1.41,0,2.89,0,4.44.11s3.1.17,4.66.29,3,.28,4.44.47l-.22,1.32q-3.21-.22-6.66-.37c-2.31-.09-4.52-.17-6.66-.22a43.06,43.06,0,0,0-6.33.26,5,5,0,0,0-3.64,2c-.78,1.09-1.17,2.91-1.17,5.44s.51,4.39,1.53,5.43a7.1,7.1,0,0,0,4.3,1.94L1013,397a9.68,9.68,0,0,1,5.89,2.63c1.36,1.41,2,3.51,2,6.28q0,4.46-1.6,6.49a7.41,7.41,0,0,1-4.66,2.63,40.54,40.54,0,0,1-7.5.59c-1.69,0-3.56-.05-5.6-.15s-4.39-.32-7.06-.66l.22-1.31c1.55.15,3,.25,4.29.33s2.62.12,3.93.14,2.74,0,4.3,0a39.41,39.41,0,0,0,7-.62,5.73,5.73,0,0,0,3.78-2.26,9.38,9.38,0,0,0,1.17-5.22q0-3.87-1.79-5.4a7.88,7.88,0,0,0-4.4-1.82l-11.79-1.46a10.8,10.8,0,0,1-4.12-1.28,6.25,6.25,0,0,1-2.58-2.88,11.83,11.83,0,0,1-.87-4.89q0-4.46,1.45-6.43a6.45,6.45,0,0,1,4.33-2.44A39.87,39.87,0,0,1,1006.51,378.89Z"/><polygon class="cls-1" points="1048.95 379.76 1048.95 381.37 1027.91 381.37 1027.91 380.13 1034.68 379.76 1048.95 379.76"/><path class="cls-1" d="M1036,368.74v39.05a5.8,5.8,0,0,0,1.53,4.38,6,6,0,0,0,4.3,1.46h6.4l.22,1.16c-.63.1-1.36.18-2.18.26s-1.59.12-2.3.14-1.27,0-1.71,0q-4,0-6-1.9a7.16,7.16,0,0,1-2-5.47V368.74Z"/><path class="cls-1" d="M1070.71,378.89c4.57,0,8,.83,10.27,2.48s3.44,4.13,3.49,7.44c.1,3.12-.41,5.46-1.53,7s-3.1,2.38-6,2.38h-20.23v-1.61H1077c2.14,0,3.64-.66,4.52-2a9.58,9.58,0,0,0,1.16-5.69q-.08-4.38-3.06-6.39c-2-1.33-4.92-2-8.8-2a16.15,16.15,0,0,0-7.79,1.61,9.15,9.15,0,0,0-4.19,5.22,29.85,29.85,0,0,0-1.27,9.67,28.13,28.13,0,0,0,1.45,10,9.64,9.64,0,0,0,4.55,5.32,17.19,17.19,0,0,0,8,1.61,64,64,0,0,0,6.69-.33c2.09-.22,3.81-.42,5.17-.62l.29,1.31a20.07,20.07,0,0,1-3.38.66c-1.48.19-3,.35-4.66.47s-3.07.19-4.33.19a18.73,18.73,0,0,1-9-1.86,11.09,11.09,0,0,1-5-5.95,29.89,29.89,0,0,1-1.6-10.73,31.71,31.71,0,0,1,1.49-10.73,10.22,10.22,0,0,1,4.8-5.76A18.6,18.6,0,0,1,1070.71,378.89Z"/><polygon class="cls-1" points="1097.28 379.76 1097.5 386.18 1097.72 387.35 1097.72 414.79 1095.97 414.79 1095.97 379.76 1097.28 379.76"/><path class="cls-1" d="M1113.08,378.89q4.37,0,6.7,2.41c1.55,1.6,2.33,4,2.33,7.15v26.34h-1.75V388.67q0-4.17-1.93-6.13a7.63,7.63,0,0,0-5.71-2,14.36,14.36,0,0,0-4.74.81,22.21,22.21,0,0,0-4.84,2.44q-2.51,1.65-5.64,4.05v-1.68a33.83,33.83,0,0,1,7.94-5.47A17.84,17.84,0,0,1,1113.08,378.89Z"/><path class="cls-1" d="M1137.47,378.89q4.37,0,6.69,2.41c1.55,1.6,2.33,4,2.33,7.15v26.34h-1.74V388.67c0-2.78-.65-4.82-1.93-6.13a7.66,7.66,0,0,0-5.72-2,14.3,14.3,0,0,0-4.73.81,22,22,0,0,0-4.84,2.44c-1.67,1.1-3.56,2.45-5.64,4.05v-1.68a33.79,33.79,0,0,1,7.93-5.47A17.85,17.85,0,0,1,1137.47,378.89Z"/><path class="cls-1" d="M1160.76,365.24h.72a.88.88,0,0,1,.88.88v4.53a.87.87,0,0,1-.87.87h-.72a.88.88,0,0,1-.88-.88v-4.53A.87.87,0,0,1,1160.76,365.24Z"/><rect class="cls-1" x="1160.25" y="379.76" width="1.75" height="35.03"/><path class="cls-1" d="M1193.51,365.24h.72a.88.88,0,0,1,.88.88v4.53a.87.87,0,0,1-.87.87h-.72a.88.88,0,0,1-.88-.88v-4.53A.87.87,0,0,1,1193.51,365.24Z"/><rect class="cls-1" x="1193" y="379.76" width="1.75" height="35.03"/><polygon class="cls-1" points="1210.11 379.76 1210.33 386.18 1210.55 387.35 1210.55 414.79 1208.8 414.79 1208.8 379.76 1210.11 379.76"/><path class="cls-1" d="M1227.36,378.89q9.39,0,9.39,9.56v26.34H1235V388.67q0-4.17-2-6.13c-1.31-1.32-3.33-2-6-2a17.6,17.6,0,0,0-7.75,1.83,67,67,0,0,0-8.92,5.47v-1.68a38.53,38.53,0,0,1,8.73-5.47A20.94,20.94,0,0,1,1227.36,378.89Z"/><polygon class="cls-1" points="1266.96 379.76 1266.96 381.37 1245.92 381.37 1245.92 380.13 1252.69 379.76 1266.96 379.76"/><path class="cls-1" d="M1261.35,362.69l2.59,0,3.16.08a28.12,28.12,0,0,1,2.84.18v1.31h-8c-2.91,0-5,.6-6.16,1.79s-1.78,3.3-1.78,6.31v42.4h-1.75v-42.4a14.34,14.34,0,0,1,.88-5.36,6.26,6.26,0,0,1,2.87-3.25A11.19,11.19,0,0,1,1261.35,362.69Z"/><path class="cls-1" d="M1302.26,386.48a10.19,10.19,0,0,0-4.8-5.8,23.57,23.57,0,0,0-18,0,10.17,10.17,0,0,0-4.84,5.8,40.8,40.8,0,0,0,0,21.56,10.19,10.19,0,0,0,4.84,5.84,23.57,23.57,0,0,0,18,0,10.21,10.21,0,0,0,4.8-5.84,32.85,32.85,0,0,0,1.46-10.83A32.24,32.24,0,0,0,1302.26,386.48Zm-1.67,20.76a8.93,8.93,0,0,1-4.26,5.22,21.16,21.16,0,0,1-15.8,0,9,9,0,0,1-4.25-5.22,30.71,30.71,0,0,1-1.31-10,30.09,30.09,0,0,1,1.31-9.93,8.93,8.93,0,0,1,4.25-5.18,21,21,0,0,1,15.8,0,8.9,8.9,0,0,1,4.26,5.18,30.36,30.36,0,0,1,1.31,9.93A31,31,0,0,1,1300.59,407.24Z"/><polygon class="cls-1" points="1317.04 379.76 1317.26 386.18 1317.48 387.35 1317.48 414.79 1315.73 414.79 1315.73 379.76 1317.04 379.76"/><path class="cls-1" d="M1335,378.89l-.36,1.67h-1.24a16.43,16.43,0,0,0-7.5,1.9,74.86,74.86,0,0,0-8.66,5.4v-1.68a46.26,46.26,0,0,1,8.41-5.36,18.33,18.33,0,0,1,8-1.93Z"/><polygon class="cls-1" points="1344.92 379.76 1345.14 386.18 1345.36 387.35 1345.36 414.79 1343.61 414.79 1343.61 379.76 1344.92 379.76"/><path class="cls-1" d="M1360.72,378.89q4.37,0,6.69,2.41c1.56,1.6,2.33,4,2.33,7.15v26.34H1368V388.67c0-2.78-.65-4.82-1.93-6.13a7.64,7.64,0,0,0-5.72-2,14.3,14.3,0,0,0-4.73.81,22.21,22.21,0,0,0-4.84,2.44c-1.67,1.1-3.56,2.45-5.64,4.05v-1.68a34,34,0,0,1,7.93-5.47A17.89,17.89,0,0,1,1360.72,378.89Z"/><path class="cls-1" d="M1385.1,378.89c2.91,0,5.15.8,6.7,2.41s2.33,4,2.33,7.15v26.34h-1.75V388.67q0-4.17-1.93-6.13a7.62,7.62,0,0,0-5.71-2,14.3,14.3,0,0,0-4.73.81,21.77,21.77,0,0,0-4.84,2.44q-2.52,1.65-5.65,4.05v-1.68a34,34,0,0,1,7.94-5.47A17.84,17.84,0,0,1,1385.1,378.89Z"/><path class="cls-1" d="M1431.84,393.63l-.08,1.46-17.83.29a6.91,6.91,0,0,0-4.88,1.72,6.4,6.4,0,0,0-1.67,4.78v4.52a6.94,6.94,0,0,0,1.85,5.22,7.8,7.8,0,0,0,5.43,1.86,17.9,17.9,0,0,0,6.07-1,30.36,30.36,0,0,0,6.23-2.84,25.42,25.42,0,0,0,5-3.76v1.82a15.32,15.32,0,0,1-2.88,2.45,33.89,33.89,0,0,1-4.18,2.44,27,27,0,0,1-4.95,1.9,19.37,19.37,0,0,1-5.24.73,10.78,10.78,0,0,1-4.88-1,7.18,7.18,0,0,1-3.13-3,9.81,9.81,0,0,1-1.09-4.82v-4.52a8.21,8.21,0,0,1,2.18-6.1,8.47,8.47,0,0,1,6.19-2.15Z"/><path class="cls-1" d="M1423.61,378.89a12.62,12.62,0,0,1,5.17,1,7,7,0,0,1,3.35,3.14,12,12,0,0,1,1.16,5.66v26.12H1432l-.44-7.73V388.67a9.65,9.65,0,0,0-1.67-5.73c-1.12-1.58-3.23-2.38-6.33-2.38-2.62,0-5.37.12-8.23.33s-5.58.5-8.15.84l-.22-1.31q2.32-.36,4.77-.69c1.62-.22,3.41-.42,5.35-.59S1421.18,378.89,1423.61,378.89Z"/><polygon class="cls-1" points="1463.43 379.76 1463.43 381.37 1442.39 381.37 1442.39 380.13 1449.16 379.76 1463.43 379.76"/><path class="cls-1" d="M1450.47,368.74v39.05a5.8,5.8,0,0,0,1.53,4.38,6,6,0,0,0,4.29,1.46h6.41l.22,1.16c-.63.1-1.36.18-2.19.26s-1.59.12-2.29.14-1.27,0-1.71,0q-4,0-6-1.9a7.19,7.19,0,0,1-2-5.47V368.74Z"/><path class="cls-1" d="M1472.82,365.24h.72a.88.88,0,0,1,.88.88v4.53a.87.87,0,0,1-.87.87h-.72a.88.88,0,0,1-.88-.88v-4.53A.87.87,0,0,1,1472.82,365.24Z"/><rect class="cls-1" x="1472.31" y="379.76" width="1.75" height="35.03"/><path class="cls-1" d="M1515.91,379.76l-14.34,34.45a1.24,1.24,0,0,1-.36.44,1.14,1.14,0,0,1-.59.14h-2a1.15,1.15,0,0,1-.55-.14,1.07,1.07,0,0,1-.4-.44l-14.34-34.45h1.89l11.14,26.79c.48,1.07.95,2.16,1.38,3.28s.9,2.24,1.39,3.36h.94c.49-1.12,1-2.24,1.42-3.36s.94-2.24,1.42-3.36L1514,379.76Z"/><path class="cls-1" d="M1525.74,365.24h.72a.88.88,0,0,1,.88.88v4.53a.88.88,0,0,1-.88.88h-.72a.88.88,0,0,1-.88-.88v-4.53A.87.87,0,0,1,1525.74,365.24Z"/><rect class="cls-1" x="1525.23" y="379.76" width="1.75" height="35.03"/></g></g><g id="pittogramma"><path class="cls-2" d="M471.94,351.47s13.2-9.06,20.68-13.55c-225,74-401.25,131-441,104.9C-12.5,400.64,243.88,215.52,585.21,62c-7.83,14-9.85,16.38-8.79,14C463.11,117.27,240.15,230.66,87.68,345.47c-155.47,117.06-111.75,176.92,192,71.29Z"/><path class="cls-2" d="M567,105.11l4.83-27.65-23.09-16,87.09-10.66Z"/><path class="cls-3" d="M349.24,57.7l20.95,5.63V85l-20.95-5.07Z"/><path class="cls-3" d="M391.37,403.17l56.81-11.67v63.43l-56.81,16.78Z"/><path class="cls-3" d="M136.28,352.53l78.81-5-1.66,66.6-79,10.67Z"/><path class="cls-3" d="M492.13,180.3l47.71,5.2v59.71l-47.71-.7Z"/><path class="cls-3" d="M274.44,219.12l93.44,3.68v88.59L274.44,318Z"/><path class="cls-4" d="M163.05,330.16l78.81-5-1.67,66.61-78.95,10.67Z"/><path class="cls-3" d="M195.74,25.09,324.67,55.37V167.76L195.74,154.57Z"/><path class="cls-5" d="M364.51,49.07l20.95,5.62V76.34l-20.95-5.06Z"/><path class="cls-3" d="M451.11,289.91l43.59-6.41v54l-43.59,11.21Z"/><path class="cls-5" d="M335.52,365.66,364,360.88V389l-28.52,5.73Z"/><path class="cls-5" d="M460.09,310.64l22.14-3.71v21.83l-22.14,4.45Z"/><path class="cls-6" d="M348.13,351.09l28.52-4.77v28.13l-28.52,5.74Z"/><path class="cls-2" d="M510.56,155.22l47.71,5.2v59.7l-47.71-.7Z"/><path class="cls-2" d="M409.8,378.09l56.81-11.68v63.43L409.8,446.62Z"/><path class="cls-2" d="M292.87,194l93.44,3.68V286.3l-93.44,6.61Z"/><path class="cls-3" d="M389.55,121.52l77.07,14.29v82.42l-77.07-3.38Z"/><path class="cls-2" d="M404.82,100.75,481.89,115v82.42l-77.07-3.38Z"/><path class="cls-2" d="M182.1,305.54l78.81-5-1.66,66.61-79,10.67Z"/><path class="cls-2" d="M214.17,0,343.1,30.28v112.4L214.17,129.49Z"/><path class="cls-2" d="M375,38.57l20.95,5.63V65.84L375,60.78Z"/><path class="cls-2" d="M469.07,265l43.59-6.41v54l-43.59,11.22Z"/><path class="cls-2" d="M361,333.51l28.52-4.78v28.14L361,362.6Z"/><path class="cls-5" d="M283,255.54l51.2,2V306.1L283,309.72Z"/></g></g></g></g></svg>