<svg xmlns="http://www.w3.org/2000/svg" width="22.509" height="15.817" viewBox="0 0 22.509 15.817">
  <path id="Tracciato_9" data-name="Tracciato 9" d="M23.495,9.833a8.691,8.691,0,0,0-.93-4.223,2.986,2.986,0,0,0-1.759-1.022,80.124,80.124,0,0,0-8.558-.317,80.209,80.209,0,0,0-8.528.307,2.935,2.935,0,0,0-1.493.757c-.92.849-1.022,2.3-1.125,3.528a49.374,49.374,0,0,0,0,6.626,9.765,9.765,0,0,0,.307,2.045,3.211,3.211,0,0,0,.726,1.391,2.924,2.924,0,0,0,1.524.8,46.2,46.2,0,0,0,6.646.337c3.579.051,6.718,0,10.429-.286a2.945,2.945,0,0,0,1.564-.8,2.546,2.546,0,0,0,.624-1.022,10.818,10.818,0,0,0,.532-3.476C23.495,13.9,23.495,10.446,23.495,9.833ZM9.937,15.088V8.759l6.053,3.18C14.292,12.88,12.053,13.943,9.937,15.088Z" transform="translate(-0.991 -4.258)" fill="#fff"/>
</svg>
