<svg xmlns="http://www.w3.org/2000/svg" width="306.555" height="242.663" viewBox="0 0 306.555 242.663">
  <g id="Raggruppa_796" data-name="Raggruppa 796" transform="translate(-86.289 -10.467)">
    <g id="Raggruppa_727" data-name="Raggruppa 727" transform="matrix(0.998, 0.07, -0.07, 0.998, 102.244, 6.822)">
      <path id="Tracciato_746" data-name="Tracciato 746" d="M154.147,167.763c-.493.063,6.05-4.825,9.5-7.249C-95.328,267.286-9.928,145.861,260.131,0c-3.264,6.961-4.148,8.2-3.726,7.042-53.288,23.935-164.126,83.077-226.385,147C-37.243,222,10.4,240.594,154.147,167.763Z" transform="translate(0 14.334)" fill="#185fa2" fill-rule="evenodd"/>
      <path id="Tracciato_747" data-name="Tracciato 747" d="M10.468,34.745l1.472-15.223L0,9.462,47.427,0Z" transform="translate(243.883 0)" fill="#185fa2" fill-rule="evenodd"/>
    </g>
    <g id="logo" transform="translate(172.395 10.467)">
      <path id="Tracciato_343" data-name="Tracciato 343" d="M411.347,81.761l9.14,2.455v9.446l-9.14-2.208Z" transform="translate(-317.638 -56.585)" fill="none" stroke="#acd0fb" stroke-width="0.633" fill-rule="evenodd"/>
      <path id="Tracciato_344" data-name="Tracciato 344" d="M436,282.163l24.785-5.094v27.676L436,312.066Z" transform="translate(-323.906 -106.247)" fill="none" stroke="#acd0fb" stroke-width="0.633" fill-rule="evenodd"/>
      <path id="Tracciato_345" data-name="Tracciato 345" d="M286.472,253.525l34.387-2.19-.726,29.061-34.448,4.656Z" transform="translate(-285.685 -99.704)" fill="none" stroke="#acd0fb" stroke-width="0.633" fill-rule="evenodd"/>
      <path id="Tracciato_346" data-name="Tracciato 346" d="M494.948,153.5l20.818,2.269v26.052l-20.818-.3Z" transform="translate(-338.896 -74.826)" fill="none" stroke="#acd0fb" stroke-width="0.633" fill-rule="evenodd"/>
      <path id="Tracciato_347" data-name="Tracciato 347" d="M367.578,176.211l40.77,1.606V216.47l-40.77,2.883Z" transform="translate(-306.508 -80.601)" fill="none" stroke="#acd0fb" stroke-width="0.633" fill-rule="evenodd"/>
      <path id="Tracciato_348" data-name="Tracciato 348" d="M302.132,240.434l34.387-2.189-.726,29.061-34.449,4.656Z" transform="translate(-289.667 -96.375)" fill="none" stroke="#185fa2" fill-rule="evenodd"/>
      <path id="Tracciato_349" data-name="Tracciato 349" d="M321.527,62.678l56.26,13.212v49.042l-56.26-5.755Z" transform="translate(-294.799 -51.732)" fill="none" stroke="#acd0fb" stroke-width="0.633" fill-rule="evenodd"/>
      <path id="Tracciato_350" data-name="Tracciato 350" d="M420.278,76.71l9.14,2.455v9.446l-9.14-2.208Z" transform="translate(-319.909 -55.3)" fill="#acd0fb" fill-rule="evenodd"/>
      <path id="Tracciato_351" data-name="Tracciato 351" d="M470.948,216.677l19.02-2.8v23.545l-19.02,4.892Z" transform="translate(-332.793 -90.179)" fill="none" stroke="#acd0fb" stroke-width="0.633" fill-rule="evenodd"/>
      <path id="Tracciato_352" data-name="Tracciato 352" d="M403.314,261.24l12.447-2.083v12.276l-12.447,2.5Z" transform="translate(-315.595 -101.693)" fill="#acd0fb" fill-rule="evenodd"/>
      <path id="Tracciato_353" data-name="Tracciato 353" d="M476.206,229.206l9.658-1.617v9.526l-9.658,1.942Z" transform="translate(-334.131 -93.666)" fill="#acd0fb" fill-rule="evenodd"/>
      <path id="Tracciato_354" data-name="Tracciato 354" d="M410.693,252.717l12.446-2.082V262.91l-12.446,2.5Z" transform="translate(-317.472 -99.526)" fill="none" stroke="#185fa2" stroke-width="0.633" fill-rule="evenodd"/>
      <path id="Tracciato_355" data-name="Tracciato 355" d="M505.732,138.819l20.818,2.269V167.14l-20.818-.3Z" transform="translate(-341.638 -71.093)" fill="#185fa2" fill-rule="evenodd"/>
      <path id="Tracciato_356" data-name="Tracciato 356" d="M446.779,267.485l24.786-5.094v27.676l-24.786,7.322Z" transform="translate(-326.647 -102.515)" fill="#185fa2" fill-rule="evenodd"/>
      <path id="Tracciato_357" data-name="Tracciato 357" d="M378.363,161.533l40.77,1.605v38.654l-40.77,2.883Z" transform="translate(-309.251 -76.869)" fill="#185fa2" fill-rule="evenodd"/>
      <path id="Tracciato_358" data-name="Tracciato 358" d="M434.931,119.1l33.628,6.236V161.3l-33.628-1.475Z" transform="translate(-323.635 -66.08)" fill="none" stroke="#acd0fb" stroke-width="0.633" fill-rule="evenodd"/>
      <path id="Tracciato_359" data-name="Tracciato 359" d="M443.862,106.947l33.628,6.236v35.962l-33.628-1.475Z" transform="translate(-325.906 -62.989)" fill="#185fa2" fill-rule="evenodd"/>
      <path id="Tracciato_360" data-name="Tracciato 360" d="M313.28,226.029l34.387-2.189-.726,29.061-34.449,4.656Z" transform="translate(-292.502 -92.712)" fill="#185fa2" fill-rule="evenodd"/>
      <path id="Tracciato_361" data-name="Tracciato 361" d="M332.312,48l56.259,13.212v49.042L332.312,104.5Z" transform="translate(-297.541 -48)" fill="#185fa2" fill-rule="evenodd"/>
      <path id="Tracciato_362" data-name="Tracciato 362" d="M426.406,70.568l9.14,2.454v9.446l-9.14-2.207Z" transform="translate(-321.467 -53.739)" fill="#185fa2" fill-rule="evenodd"/>
      <path id="Tracciato_363" data-name="Tracciato 363" d="M481.459,202.079l19.02-2.8v23.545l-19.02,4.892Z" transform="translate(-335.466 -86.467)" fill="#185fa2" fill-rule="evenodd"/>
      <path id="Tracciato_364" data-name="Tracciato 364" d="M418.24,242.429l12.447-2.083v12.276l-12.447,2.5Z" transform="translate(-319.391 -96.91)" fill="#185fa2" fill-rule="evenodd"/>
      <path id="Tracciato_365" data-name="Tracciato 365" d="M372.605,197.521l22.34.88V219.58l-22.34,1.58Z" transform="translate(-307.787 -86.02)" fill="#acd0fb" fill-rule="evenodd"/>
    </g>
  </g>
</svg>
