<svg xmlns="http://www.w3.org/2000/svg" xmlns="http://www.w3.org/2000/svg" xmlns:xlink="http://www.w3.org/1999/xlink" style="position: absolute; width: 0; height: 0" aria-hidden="true">
    <defs>
        <symbol id="linkedin">
            <path d="M4.278,5.847V18H.232V5.847ZM4.535,2.1c0,.022,0,.047,0,.073a1.934,1.934,0,0,1-.619,1.421h0a2.3,2.3,0,0,1-1.556.6l-.111,0H2.229l-.1,0a2.208,2.208,0,0,1-1.518-.6h0A2,2,0,0,1,0,2.148c0-.018,0-.036,0-.055v0c0-.016,0-.034,0-.052A1.97,1.97,0,0,1,.628.6h0A2.3,2.3,0,0,1,2.18,0l.1,0h0l.107,0A2.237,2.237,0,0,1,3.911.6h0a2.04,2.04,0,0,1,.626,1.473V2.1Zm14.294,8.939V18H14.8V11.5c0-.059.005-.128.005-.2a3.526,3.526,0,0,0-.511-1.835l.009.016a1.744,1.744,0,0,0-1.422-.734c-.045,0-.09,0-.135.005h-.061a1.976,1.976,0,0,0-1.231.427l0,0a2.62,2.62,0,0,0-.774,1.031l-.006.017a2.9,2.9,0,0,0-.136.89q0,.054,0,.108V18H6.509q.025-4.891.025-7.932T6.522,6.437L6.51,5.849h4.033V7.614h-.025a5.315,5.315,0,0,1,.508-.693l-.006.007A5.224,5.224,0,0,1,11.7,6.3l.012-.009a3.159,3.159,0,0,1,1.044-.528l.022-.005a4.76,4.76,0,0,1,1.348-.19h.056c.053,0,.115,0,.178,0a4.343,4.343,0,0,1,3.191,1.392l0,0a5.834,5.834,0,0,1,1.276,4.076Z" transform="translate(0.003 0.002)" fill="#fff" />
        </symbol>
        <symbol id="facebook">
            <path d="M15.421,5.438h1.947V2.145A27.035,27.035,0,0,0,14.531,2C11.715,2,9.789,3.719,9.789,6.866V9.579H6.61v3.686H9.789v9.443H13.6V13.265h3.168l.476-3.686H13.6V7.229C13.6,6.142,13.889,5.438,15.421,5.438Z" transform="translate(-6.61 -2)" fill="#fff" />
        </symbol>
        <symbol id='youtube'>
            <path d="M23.495,9.833a8.691,8.691,0,0,0-.93-4.223,2.986,2.986,0,0,0-1.759-1.022,80.124,80.124,0,0,0-8.558-.317,80.209,80.209,0,0,0-8.528.307,2.935,2.935,0,0,0-1.493.757c-.92.849-1.022,2.3-1.125,3.528a49.374,49.374,0,0,0,0,6.626,9.765,9.765,0,0,0,.307,2.045,3.211,3.211,0,0,0,.726,1.391,2.924,2.924,0,0,0,1.524.8,46.2,46.2,0,0,0,6.646.337c3.579.051,6.718,0,10.429-.286a2.945,2.945,0,0,0,1.564-.8,2.546,2.546,0,0,0,.624-1.022,10.818,10.818,0,0,0,.532-3.476C23.495,13.9,23.495,10.446,23.495,9.833ZM9.937,15.088V8.759l6.053,3.18C14.292,12.88,12.053,13.943,9.937,15.088Z" transform="translate(-0.991 -4.258)" fill="#fff" />
        </symbol>
    </defs>
</svg>