<svg xmlns="http://www.w3.org/2000/svg" width="151.71" height="69.959" viewBox="0 0 151.71 69.959">
  <g id="Raggruppa_822" data-name="Raggruppa 822" transform="translate(2.5 2.5)">
    <path id="Tracciato_886" data-name="Tracciato 886" d="M273.576,221.253a16.825,16.825,0,1,1-16.825,16.825A16.826,16.826,0,0,1,273.576,221.253Z" transform="translate(-200.222 -205.598)" fill="none" stroke="#185fa2" stroke-miterlimit="10" stroke-width="3"/>
    <path id="Tracciato_887" data-name="Tracciato 887" d="M272.7,204.722a32.48,32.48,0,1,1-32.479,32.48A32.48,32.48,0,0,1,272.7,204.722Zm16.826,32.48A16.826,16.826,0,1,0,272.7,254.028,16.826,16.826,0,0,0,289.527,237.2Z" transform="translate(-199.346 -204.722)" fill="none" stroke="#fff" stroke-linejoin="round" stroke-width="5"/>
    <path id="Tracciato_888" data-name="Tracciato 888" d="M270.413,204.722a32.48,32.48,0,0,0,0,64.96A98.816,98.816,0,0,1,197.058,237.2,98.817,98.817,0,0,1,270.413,204.722Z" transform="translate(-197.058 -204.722)" fill="none" stroke="#fff" stroke-linejoin="round" stroke-width="5"/>
    <path id="Tracciato_889" data-name="Tracciato 889" d="M274.518,204.722a98.821,98.821,0,0,1,73.356,32.48,98.817,98.817,0,0,1-73.356,32.479,32.48,32.48,0,0,0,0-64.96Z" transform="translate(-201.163 -204.722)" fill="none" stroke="#fff" stroke-linejoin="round" stroke-width="5"/>
  </g>
</svg>
